<svg width="156" height="147" xmlns="http://www.w3.org/2000/svg" preserveAspectRatio="xMidYMid meet" version="1.0">

 <g>
  <title>background</title>
  <rect fill="none" id="canvas_background" height="810" width="1662" y="-1" x="-1"/>
 </g>
 <g>
  <title>Layer 1</title>
  <g id="svg_1" fill="#000000" transform="translate(0,147) scale(0.10000000149011612,-0.10000000149011612) ">
   <path fill="#ff4444" id="svg_2" d="m447,1424c-16,-16 -7,-44 14,-44c15,0 20,5 17,22c-3,22 -19,33 -31,22z"/>
   <path fill="#ff4444" id="svg_3" d="m487,1374c-4,-4 -7,-36 -7,-71c0,-56 -2,-63 -20,-63c-13,0 -20,-7 -20,-20c0,-13 7,-20 20,-20c17,0 20,-7 20,-40c0,-33 3,-40 20,-40c16,0 20,7 20,36c0,27 -5,37 -20,41c-27,7 -26,43 0,50c19,5 21,12 18,66c-3,56 -14,78 -31,61z"/>
   <path fill="#ff4444" id="svg_4" d="m300,1250c0,-11 7,-20 15,-20c8,0 15,9 15,20c0,11 -7,20 -15,20c-8,0 -15,-9 -15,-20z"/>
   <path fill="#ff4444" id="svg_5" d="m783,1216c-213,-41 -401,-209 -459,-411l-19,-65l-67,0c-53,0 -68,-3 -68,-15c0,-10 15,-15 58,-17c31,-2 56,-7 55,-13c-4,-14 -123,-19 -123,-5c0,5 -7,10 -15,10c-8,0 -15,9 -15,20c0,26 -31,26 -54,1c-38,-42 -28,-138 16,-162c11,-6 62,-9 115,-8l96,3l13,-52c40,-156 162,-306 304,-375c87,-42 210,-77 274,-77c72,0 186,30 276,72c152,72 273,220 315,383c65,255 -69,539 -308,654c-45,22 -102,44 -127,50c-82,18 -193,21 -267,7zm270,-51c238,-50 417,-273 417,-520c0,-221 -144,-427 -350,-502c-178,-65 -384,-18 -524,120c-110,109 -159,225 -159,377c0,156 48,275 153,380c131,131 292,181 463,145z"/>
   <path fill="#ff4444" id="svg_6" d="m819,1021c-158,-51 -258,-181 -267,-348c-4,-69 -1,-93 18,-143c23,-60 38,-72 59,-46c10,11 9,25 -3,61c-57,166 50,369 219,417c44,12 157,13 208,2c44,-9 98,-37 121,-63c19,-21 19,-21 -7,-21c-16,0 -27,-6 -27,-14c0,-9 18,-15 53,-20c94,-11 99,-10 93,22c-3,15 -8,46 -11,70c-5,28 -12,42 -22,42c-10,0 -13,-6 -9,-16c11,-29 -5,-34 -32,-9c-81,76 -266,107 -393,66z"/>
   <path fill="#ff4444" id="svg_7" d="m915,890c-97,-15 -174,-84 -202,-179c-30,-106 11,-217 104,-278c194,-129 448,59 378,280c-39,124 -154,197 -280,177zm126,-88c90,-47 125,-152 80,-240c-37,-72 -87,-102 -172,-102c-108,0 -186,87 -177,196c6,67 39,118 98,149c60,32 106,31 171,-3z"/>
   <path fill="#ff4444" id="svg_8" d="m884,716c-42,-42 -47,-100 -11,-141c66,-75 187,-32 187,67c0,55 -51,108 -105,108c-29,0 -45,-8 -71,-34z"/>
   <path fill="#ff4444" id="svg_9" d="m1285,799c-4,-6 -2,-30 5,-55c7,-26 11,-77 8,-126c-5,-96 -36,-166 -99,-223c-66,-59 -114,-78 -211,-83c-105,-5 -166,8 -224,50c-47,33 -50,48 -9,40c24,-4 35,11 15,23c-5,3 -39,9 -76,14l-66,8l7,-66c4,-36 9,-69 12,-74c10,-16 23,-6 23,19l0,26l40,-32c63,-50 147,-73 265,-74c95,-1 104,1 170,33c87,43 148,104 189,190c28,59 31,76 31,156c0,71 -5,100 -22,138c-21,45 -44,59 -58,36z"/>
   <path fill="#ff4444" id="svg_10" d="m340,1165c0,-42 3,-55 15,-55c11,0 15,-12 15,-45c0,-38 3,-45 20,-45c17,0 20,7 20,45c0,38 -3,45 -20,45c-18,0 -20,7 -20,55c0,42 -3,55 -15,55c-12,0 -15,-13 -15,-55z"/>
   <path fill="#ff4444" id="svg_11" d="m170,1120c0,-13 7,-20 20,-20c13,0 20,7 20,20c0,13 -7,20 -20,20c-13,0 -20,-7 -20,-20z"/>
   <path fill="#ff4444" id="svg_12" d="m210,1045c0,-38 3,-45 20,-45c11,0 20,-7 20,-15c0,-8 9,-15 20,-15c11,0 20,7 20,15c0,8 -9,15 -20,15c-17,0 -20,7 -20,45c0,38 -3,45 -20,45c-17,0 -20,-7 -20,-45z"/>
   <path fill="#ff4444" id="svg_13" d="m290,919c0,-31 4,-40 16,-37c8,2 15,6 15,11c-1,4 -1,21 -1,37c0,20 -5,30 -15,30c-11,0 -15,-11 -15,-41z"/>
   <path fill="#ff4444" id="svg_14" d="m245,820c-8,-14 3,-30 21,-30c8,0 14,9 14,20c0,21 -24,28 -35,10z"/>
  </g>
 </g>
</svg>